<?xml version="1.0" standalone="no"?>
<!DOCTYPE svg PUBLIC "-//W3C//DTD SVG 20010904//EN"
 "http://www.w3.org/TR/2001/REC-SVG-20010904/DTD/svg10.dtd">
<svg version="1.0" xmlns="http://www.w3.org/2000/svg"
 width="1523.000000pt" height="1523.000000pt" viewBox="0 0 1523.000000 1523.000000"
 preserveAspectRatio="xMidYMid meet">
<metadata>
Created by potrace 1.14, written by Peter Selinger 2001-2017
</metadata>
<g transform="translate(0.000000,1523.000000) scale(0.100000,-0.100000)"
fill="#000000" stroke="none">
<path d="M6692 14633 c48 -2 129 -2 180 0 51 1 12 3 -87 3 -99 0 -141 -2 -93
-3z"/>
<path d="M7003 14633 c9 -2 23 -2 30 0 6 3 -1 5 -18 5 -16 0 -22 -2 -12 -5z"/>
<path d="M7068 14633 c12 -2 30 -2 40 0 9 3 -1 5 -23 4 -22 0 -30 -2 -17 -4z"/>
<path d="M7143 14633 c9 -2 25 -2 35 0 9 3 1 5 -18 5 -19 0 -27 -2 -17 -5z"/>
<path d="M7213 14633 c9 -2 23 -2 30 0 6 3 -1 5 -18 5 -16 0 -22 -2 -12 -5z"/>
<path d="M7368 14633 c7 -3 16 -2 19 1 4 3 -2 6 -13 5 -11 0 -14 -3 -6 -6z"/>
<path d="M7458 14633 c29 -2 74 -2 100 0 26 2 2 3 -53 3 -55 0 -76 -1 -47 -3z"/>
<path d="M7918 14633 c23 -2 59 -2 80 0 20 2 1 4 -43 4 -44 0 -61 -2 -37 -4z"/>
<path d="M8433 14633 c9 -2 23 -2 30 0 6 3 -1 5 -18 5 -16 0 -22 -2 -12 -5z"/>
<path d="M8488 14633 c6 -2 18 -2 25 0 6 3 1 5 -13 5 -14 0 -19 -2 -12 -5z"/>
<path d="M8957 14259 c-59 -31 -79 -71 -75 -153 4 -64 6 -70 40 -102 149 -136
371 83 226 223 -59 57 -124 67 -191 32z"/>
<path d="M4945 14049 c-11 -16 -1 -19 13 -3 7 8 8 14 3 14 -5 0 -13 -5 -16
-11z"/>
<path d="M7470 13945 c-125 -18 -243 -56 -362 -117 -120 -61 -201 -122 -298
-224 -195 -204 -296 -441 -307 -721 -3 -73 -6 -134 -7 -135 -1 -1 -478 -5
-1061 -8 -1039 -6 -1062 -7 -1153 -28 -389 -91 -685 -367 -799 -747 l-26 -90
-8 -735 c-9 -969 -9 -6145 1 -7745 8 -1390 4 -1314 73 -1481 49 -121 93 -195
168 -286 91 -110 207 -204 337 -271 130 -68 221 -94 372 -108 78 -7 1136 -9
3275 -6 3457 4 3205 -1 3387 61 332 111 587 401 675 766 13 56 16 239 23 1365
10 1582 10 1595 21 1595 5 0 9 14 9 32 0 34 6 35 12 3 1 -11 8 -23 13 -27 6
-4 10 -13 10 -20 0 -20 75 -27 235 -21 80 3 169 1 197 -4 42 -8 55 -7 64 3 6
8 15 12 19 9 10 -6 22 24 14 36 -5 9 33 48 49 49 10 0 -17 -53 -66 -125 -22
-33 -58 -87 -80 -120 -79 -117 -182 -251 -270 -350 -123 -137 -127 -146 -127
-327 0 -82 4 -148 8 -148 15 0 175 165 267 275 342 410 629 921 830 1475 367
1015 413 2118 129 3109 -167 583 -451 1156 -792 1601 -173 226 -423 502 -440
486 -2 -3 -3 -69 -3 -148 2 -165 -14 -131 156 -336 154 -184 249 -311 327
-434 39 -62 79 -125 88 -139 10 -14 34 -57 53 -96 20 -38 49 -92 65 -119 87
-148 265 -597 340 -859 29 -100 79 -310 91 -380 6 -33 19 -112 30 -175 46
-261 55 -372 55 -720 1 -431 -18 -624 -100 -1005 -54 -249 -96 -402 -179 -660
-24 -74 -108 -279 -126 -309 -11 -17 -19 -38 -19 -46 0 -31 -120 -249 -142
-258 -5 -2 -8 -12 -8 -23 0 -10 -5 -18 -11 -17 -6 2 -14 -3 -17 -11 -2 -8 0
-11 5 -8 6 4 8 -4 5 -18 -2 -14 -8 -28 -13 -31 -5 -3 -6 2 -3 10 11 28 -10 17
-28 -15 -10 -16 -13 -27 -8 -24 6 3 7 -1 4 -10 -5 -11 -10 -13 -19 -5 -15 13
-8 50 10 50 15 0 29 32 45 102 12 55 12 58 -9 75 -21 18 -21 53 0 53 5 0 9 9
9 20 0 11 5 20 10 20 6 0 10 -4 10 -10 0 -18 18 -10 23 10 3 11 13 20 24 20
15 0 16 -2 3 -10 -13 -8 -12 -10 3 -10 10 0 22 10 27 23 5 13 9 16 9 7 1 -9
-5 -24 -12 -35 -22 -32 -28 -55 -14 -55 15 0 37 46 37 79 0 21 2 23 10 11 13
-20 13 -4 0 21 -8 14 -7 19 1 19 6 0 8 7 5 16 -4 11 -2 15 8 11 11 -5 13 0 6
21 -18 61 -19 62 -77 62 -54 0 -54 0 -51 -27 1 -16 7 -31 12 -35 6 -4 4 -13
-3 -22 -8 -9 -9 -16 -4 -16 5 0 10 -13 11 -30 2 -20 -2 -30 -12 -30 -8 0 -23
-2 -33 -5 -11 -3 -9 -1 5 6 25 14 31 59 7 59 -8 0 -15 5 -15 10 0 6 5 10 10
10 6 0 10 15 10 34 0 44 9 66 26 66 8 0 14 7 14 15 0 8 -6 15 -14 15 -8 0 -16
7 -20 15 -4 11 2 15 24 15 17 0 30 -4 30 -10 0 -5 7 -10 15 -10 8 0 15 5 15
10 0 6 11 10 25 10 19 0 23 -4 19 -17 -5 -17 -5 -17 9 0 8 9 19 17 24 17 11 0
26 41 18 49 -3 2 -5 0 -5 -5 0 -5 -20 -8 -45 -6 -36 3 -45 8 -45 23 0 17 -8
19 -86 19 -71 0 -89 -3 -100 -17 -13 -17 -15 -17 -28 0 -9 12 -27 17 -59 17
-42 0 -46 -2 -52 -30 -8 -35 -31 -40 -41 -8 l-7 23 -8 -23 c-7 -18 -16 -22
-54 -22 -25 0 -45 -4 -45 -10 0 -6 27 -10 60 -10 33 0 60 -4 60 -10 0 -5 -13
-10 -29 -10 -16 0 -31 -4 -33 -8 -5 -13 -58 -24 -58 -12 0 5 -18 10 -40 10
-34 0 -40 -3 -40 -21 0 -15 -4 -19 -16 -15 -9 3 -27 6 -40 6 -20 0 -24 5 -24
30 0 25 -4 30 -24 30 -16 0 -27 7 -31 20 -3 11 -11 20 -16 20 -5 0 -9 10 -9
23 -1 12 -7 45 -15 72 -13 48 -14 43 -14 -122 -1 -147 -3 -173 -16 -173 -9 0
-15 -10 -15 -26 0 -14 4 -23 10 -19 6 3 10 -1 10 -9 0 -9 -4 -16 -8 -16 -9 0
-8 -282 0 -335 3 -16 3 -21 0 -10 -4 13 -8 3 -13 -30 -3 -27 -7 641 -7 1485
-4 3490 -11 5156 -22 5246 -26 209 -117 396 -274 562 -128 136 -287 240 -436
286 -173 54 -208 56 -1307 56 l-1013 0 0 81 c0 246 -78 491 -215 674 -61 80
-187 205 -260 257 -221 156 -517 230 -775 193z m204 -760 c116 -25 208 -100
258 -211 30 -69 30 -189 -2 -258 -40 -88 -134 -171 -222 -197 -18 -5 -62 -10
-96 -10 -126 -1 -245 69 -307 183 -28 49 -30 60 -30 158 0 90 3 112 23 153 46
92 143 166 243 186 61 12 56 12 133 -4z m-992 -949 c28 -49 162 -190 243 -256
278 -222 679 -289 1049 -174 177 56 424 241 529 397 l28 42 411 5 c225 3 414
2 420 -1 6 -4 7 -160 2 -448 l-7 -441 -1752 0 c-1563 0 -1753 2 -1759 15 -3 9
-6 210 -6 448 l0 432 416 0 c386 -1 417 -2 426 -19z m-1060 -611 l3 -434 23
-23 23 -23 1912 -3 c1423 -2 1919 1 1940 9 58 24 57 15 57 482 l0 428 483 -3
c420 -4 490 -6 542 -21 103 -30 166 -68 247 -148 90 -88 140 -179 157 -287 9
-49 11 -1325 9 -4642 -3 -4219 -4 -4579 -20 -4621 -63 -178 -208 -308 -377
-339 -35 -7 -1085 -10 -3015 -10 -3228 0 -3029 -3 -3152 57 -108 52 -208 177
-243 303 -14 49 -16 535 -19 4605 -2 3166 1 4576 8 4635 31 249 231 430 506
459 44 5 267 9 496 10 l417 1 3 -435z m6945 -6037 c-3 -7 -5 -2 -5 12 0 14 2
19 5 13 2 -7 2 -19 0 -25z m-327 12 c0 -5 -18 -10 -40 -10 -22 0 -40 5 -40 10
0 6 18 10 40 10 22 0 40 -4 40 -10z m-190 -40 c0 -5 -4 -10 -10 -10 -5 0 -10
5 -10 10 0 6 5 10 10 10 6 0 10 -4 10 -10z m510 0 c0 -5 -4 -10 -10 -10 -5 0
-10 5 -10 10 0 6 5 10 10 10 6 0 10 -4 10 -10z m-337 -7 c-13 -2 -33 -2 -45 0
-13 2 -3 4 22 4 25 0 35 -2 23 -4z m333 -50 c-11 -11 -17 4 -9 23 7 18 8 18
11 1 2 -10 1 -21 -2 -24z m-138 -270 c-15 -18 -21 -9 -13 18 6 16 9 18 16 8 4
-8 3 -19 -3 -26z m10 -23 c-7 -10 -14 -18 -15 -16 -6 6 9 36 18 36 5 0 4 -9
-3 -20z m-495 -177 c-7 -2 -21 -2 -30 0 -10 3 -4 5 12 5 17 0 24 -2 18 -5z
m60 0 c-7 -2 -19 -2 -25 0 -7 3 -2 5 12 5 14 0 19 -2 13 -5z m294 -19 c-9 -9
-28 6 -21 18 4 6 10 6 17 -1 6 -6 8 -13 4 -17z"/>
<path d="M7465 10633 c-259 -21 -557 -106 -775 -220 -565 -295 -940 -779
-1066 -1376 -38 -179 -45 -471 -15 -647 21 -130 46 -226 60 -234 6 -4 909 -11
947 -7 8 1 4 31 -12 97 -86 335 -67 601 61 859 147 300 442 524 762 580 255
45 549 -13 751 -148 319 -213 499 -562 479 -931 -10 -189 -68 -349 -178 -496
-140 -185 -356 -334 -602 -415 -131 -43 -441 -121 -612 -155 -33 -7 -66 -17
-72 -22 -17 -14 -19 -1228 -3 -1259 10 -18 26 -19 429 -19 373 0 420 2 425 16
3 9 6 143 6 298 l0 282 68 14 c264 52 584 198 802 365 198 153 387 378 509
606 149 280 211 537 211 871 0 296 -57 539 -190 813 -134 275 -333 517 -581
705 -396 302 -928 463 -1404 423z"/>
<path d="M7510 5700 c-326 -33 -591 -182 -783 -441 -105 -143 -158 -260 -192
-431 -24 -114 -16 -369 14 -481 79 -298 319 -580 604 -712 137 -63 242 -86
422 -92 174 -6 257 5 397 53 152 51 336 169 436 278 311 341 386 815 193 1211
-149 306 -444 536 -766 598 -103 20 -230 27 -325 17z m246 -746 c32 -15 79
-49 105 -75 180 -183 127 -462 -110 -576 -47 -23 -69 -27 -136 -27 -68 0 -90
5 -145 31 -78 36 -141 98 -178 173 -24 49 -27 67 -27 155 0 85 4 107 24 148
44 90 147 173 245 198 57 15 160 2 222 -27z"/>
<path d="M5100 4684 c-307 -69 -443 -308 -279 -489 93 -101 242 -155 432 -155
237 0 437 88 510 225 32 60 29 146 -7 207 -55 94 -161 168 -293 204 -82 22
-281 27 -363 8z m319 -298 c12 -11 21 -23 21 -27 0 -27 -243 -41 -309 -18 -39
14 -39 24 2 50 28 18 45 20 148 17 98 -3 120 -6 138 -22z"/>
<path d="M9277 4301 c-71 -15 -107 -73 -107 -171 0 -61 31 -125 72 -150 32
-20 44 -20 585 -18 542 3 552 3 580 24 15 11 39 36 51 55 20 29 23 44 20 101
-4 72 -20 104 -72 142 -27 21 -39 21 -559 23 -293 0 -549 -2 -570 -6z"/>
<path d="M9238 3592 c-47 -28 -58 -67 -58 -201 0 -118 0 -121 28 -146 52 -50
438 -298 647 -415 72 -40 158 -91 192 -112 153 -94 270 -120 351 -79 48 24 62
46 62 94 0 42 -13 54 -155 142 -166 103 -272 173 -350 230 -38 28 -112 82
-163 119 -152 112 -174 104 275 105 213 1 388 3 390 5 2 2 6 39 10 83 7 93
-11 143 -61 174 -29 18 -60 19 -586 19 -505 -1 -557 -2 -582 -18z"/>
<path d="M4756 3354 c-9 -8 -16 -20 -16 -25 0 -6 8 -2 17 8 10 10 22 21 28 25
6 5 6 8 -2 8 -6 0 -19 -7 -27 -16z"/>
<path d="M5088 3173 c156 -2 408 -2 560 0 152 1 25 2 -283 2 -308 0 -433 -1
-277 -2z"/>
<path d="M4785 2903 c-54 -13 -91 -85 -80 -152 8 -48 55 -98 98 -106 18 -3
843 -4 1833 -3 1785 3 1802 3 1824 23 63 57 66 144 6 204 l-36 36 -1813 1
c-996 1 -1821 0 -1832 -3z"/>
<path d="M12308 13755 c-179 -45 -311 -186 -349 -372 -24 -117 19 -276 101
-375 44 -54 143 -115 223 -139 55 -17 85 -21 148 -16 151 10 279 80 356 195
109 162 110 363 3 516 -57 81 -105 123 -186 162 -59 29 -85 36 -155 39 -55 3
-104 0 -141 -10z m177 -244 c82 -37 135 -114 142 -204 5 -61 4 -64 -35 -113
-47 -60 -108 -92 -190 -100 -53 -6 -60 -4 -101 26 -24 17 -46 40 -48 51 -3 10
-10 19 -17 19 -12 0 -31 37 -42 83 -10 42 4 110 32 153 32 49 98 98 125 91 10
-3 19 -1 19 4 0 16 73 9 115 -10z"/>
<path d="M12285 13450 c-3 -5 1 -10 9 -10 9 0 16 5 16 10 0 6 -4 10 -9 10 -6
0 -13 -4 -16 -10z"/>
<path d="M2980 13561 c-64 -10 -97 -30 -166 -103 l-61 -65 -77 -6 c-97 -9
-169 -41 -229 -106 -143 -153 -160 -397 -41 -577 59 -88 150 -181 191 -195 45
-14 151 -6 213 16 26 10 94 20 158 23 104 6 116 9 133 31 22 27 43 94 65 211
42 219 24 339 -67 435 -50 53 -59 78 -36 109 12 16 79 17 1194 16 l1181 -1 31
26 c39 34 50 84 27 132 -32 67 41 63 -1278 62 -656 -1 -1213 -5 -1238 -8z
m-147 -397 c48 -16 110 -75 127 -120 25 -64 4 -182 -42 -234 -43 -49 -166 -82
-231 -61 -38 13 -101 71 -123 114 -22 41 -28 118 -14 163 19 59 54 99 112 128
60 30 105 33 171 10z"/>
<path d="M9268 13563 c-52 -6 -88 -50 -88 -108 0 -37 5 -47 36 -74 l35 -31
1045 2 1046 3 29 33 c35 39 38 81 9 127 -11 18 -35 38 -52 44 -22 8 -331 10
-1027 9 -548 -1 -1013 -3 -1033 -5z"/>
<path d="M1890 11697 c-40 -20 -70 -74 -70 -126 0 -57 10 -73 118 -183 l86
-87 -102 -105 -102 -105 0 -54 c0 -62 23 -101 73 -122 58 -24 92 -6 216 119
63 64 117 116 121 116 3 0 51 -46 106 -102 114 -117 144 -138 198 -138 71 0
133 95 106 164 -5 15 -50 69 -100 120 -49 51 -90 100 -90 109 0 8 42 60 94
115 101 106 116 137 96 197 -12 38 -58 82 -95 91 -37 9 -82 -22 -203 -140
l-113 -110 -96 102 c-93 100 -161 152 -199 152 -10 0 -30 -6 -44 -13z"/>
<path d="M12456 11685 c-14 -21 -16 -70 -16 -384 0 -314 2 -362 16 -375 13
-14 63 -16 394 -16 365 0 380 1 390 19 15 29 14 722 -2 756 l-11 25 -377 0
-378 0 -16 -25z m460 -234 c109 -49 126 -205 31 -273 -41 -29 -132 -36 -175
-14 -69 36 -105 122 -83 202 13 48 35 71 88 90 52 18 91 17 139 -5z"/>
<path d="M3204 10838 c-190 -195 -421 -492 -566 -730 -70 -114 -188 -326 -213
-383 -13 -27 -42 -90 -65 -140 -113 -242 -200 -501 -289 -861 -89 -358 -123
-587 -142 -954 -26 -499 19 -957 142 -1455 42 -168 116 -419 154 -520 13 -33
40 -105 61 -160 68 -183 201 -462 309 -650 91 -159 275 -431 398 -589 140
-180 317 -366 348 -366 5 0 9 58 9 133 0 144 -5 161 -71 231 -79 84 -299 376
-344 458 -19 35 -42 72 -52 83 -35 38 -85 124 -78 135 4 6 2 9 -5 8 -6 -2 -42
57 -80 131 -57 109 -67 135 -56 146 10 11 15 4 26 -38 18 -70 72 -151 89 -134
10 9 12 6 9 -17 -3 -25 1 -29 24 -32 22 -2 29 2 34 20 5 22 27 28 51 13 7 -4
16 0 22 10 10 17 10 17 11 0 0 -10 4 -15 10 -12 5 3 10 17 10 30 0 18 -4 22
-20 18 -11 -3 -20 0 -20 6 0 6 11 11 25 11 16 0 25 -6 25 -15 0 -8 9 -15 19
-15 32 0 34 -18 4 -34 l-28 -15 43 -1 c38 0 42 -2 42 -24 0 -23 -2 -24 -32
-15 -17 5 -35 14 -40 21 -5 9 -8 7 -8 -6 0 -11 8 -28 18 -39 16 -18 16 -19 -8
-16 -16 3 -24 0 -23 -8 3 -15 -13 -17 -22 -3 -13 21 -25 9 -13 -12 7 -13 11
-26 10 -30 -1 -4 6 -9 16 -12 31 -9 326 1 370 13 23 7 47 9 52 6 6 -3 10 -1
10 4 0 6 -11 11 -24 11 -14 0 -28 5 -31 10 -6 9 8 14 28 11 5 -1 15 16 24 38
9 23 20 38 28 35 20 -8 25 44 25 236 0 125 -3 179 -11 182 -9 3 -9 10 0 26 15
29 4 50 -14 26 -12 -17 -13 -16 -26 4 -11 18 -23 22 -61 22 l-48 0 0 40 c0 22
5 40 10 40 6 0 10 30 10 70 l0 70 -160 0 c-153 0 -160 -1 -160 -20 0 -17 7
-20 40 -20 22 0 40 -4 40 -10 0 -5 -18 -10 -40 -10 -22 0 -40 -4 -40 -9 0 -5
-18 -11 -39 -15 -22 -3 -46 -13 -55 -21 -8 -8 -24 -15 -35 -15 -11 0 -23 -4
-26 -10 -4 -6 7 -10 24 -10 28 0 31 -3 31 -30 0 -29 -2 -30 -45 -30 -25 0 -45
-4 -45 -10 0 -5 7 -10 15 -10 8 0 15 -4 15 -10 0 -5 -4 -10 -10 -10 -5 0 -10
-4 -10 -10 0 -5 11 -10 25 -10 18 0 25 -5 25 -20 0 -13 7 -20 20 -20 18 0 19
-3 10 -20 -8 -14 -21 -20 -46 -20 -31 0 -35 3 -29 20 5 17 2 20 -24 20 -20 0
-31 -5 -31 -14 0 -8 -7 -16 -15 -20 -10 -4 -15 1 -15 14 0 16 -7 20 -36 20
l-36 0 4 -45 c3 -49 -7 -62 -15 -18 -3 14 0 39 5 54 5 16 8 34 5 41 -2 7 -9
-3 -14 -22 l-9 -35 -7 33 c-7 33 -27 45 -27 15 0 -10 12 -42 25 -72 14 -30 22
-58 17 -63 -10 -10 -102 198 -102 230 0 12 -4 22 -8 22 -16 0 -86 198 -169
475 -158 529 -228 1111 -193 1595 42 582 130 999 313 1490 180 486 470 957
830 1349 l67 73 0 149 c0 82 -4 149 -8 149 -5 0 -67 -60 -138 -132z m-4 -5148
c0 -11 -7 -20 -15 -20 -8 0 -15 9 -15 20 0 11 7 20 15 20 8 0 15 -9 15 -20z
m-290 -30 c0 -20 -5 -30 -15 -30 -10 0 -15 10 -15 30 0 20 5 30 15 30 10 0 15
-10 15 -30z m-140 -175 c0 -8 -4 -15 -10 -15 -5 0 -10 7 -10 15 0 8 5 15 10
15 6 0 10 -7 10 -15z m70 -50 c-32 -18 -40 -18 -40 0 0 10 10 15 33 15 l32 -1
-25 -14z m-200 -48 c0 -5 -4 -5 -10 -2 -5 3 -10 14 -10 23 0 15 2 15 10 2 5
-8 10 -19 10 -23z m118 -23 c7 -14 16 -23 21 -20 5 4 7 -3 4 -14 -7 -27 -10
-26 -32 20 -10 22 -16 40 -12 40 4 0 13 -12 19 -26z m-51 -36 c-3 -8 -6 -5 -6
6 -1 11 2 17 5 13 3 -3 4 -12 1 -19z m25 -40 c-7 -7 -10 3 -10 29 1 37 1 38
10 10 7 -19 7 -32 0 -39z m48 -48 c0 -5 -4 -10 -10 -10 -5 0 -10 5 -10 10 0 6
5 10 10 10 6 0 10 -4 10 -10z m80 -19 c0 -15 -30 -41 -46 -41 -17 0 -18 16 -1
35 14 16 47 20 47 6z m-93 -23 c-3 -8 -6 -5 -6 6 -1 11 2 17 5 13 3 -3 4 -12
1 -19z m492 -84 c62 -5 82 -4 77 4 -5 8 -2 10 8 6 9 -3 16 -11 16 -18 0 -7
-26 -10 -82 -9 -46 1 -84 2 -85 2 -2 1 -4 0 -5 -1 -2 -1 -13 4 -25 10 -16 9
-24 9 -29 0 -4 -6 -3 -8 4 -4 6 3 13 2 16 -3 7 -10 -20 -9 -30 2 -4 3 -12 3
-18 0 -18 -12 -37 -12 -29 0 4 6 0 8 -10 4 -10 -3 -17 -2 -17 2 0 21 26 22
209 5z m-31 -55 c24 1 25 0 16 -23 -5 -13 -25 -16 -110 -16 -57 0 -104 4 -104
9 0 12 25 21 63 22 l32 1 -30 9 c-20 5 -7 7 40 3 39 -3 80 -5 93 -5z m-268
-29 c0 -5 -5 -10 -11 -10 -5 0 -7 5 -4 10 3 6 8 10 11 10 2 0 4 -4 4 -10z"/>
<path d="M1605 10321 c-58 -24 -81 -103 -45 -159 11 -18 30 -37 43 -41 12 -5
112 -9 222 -8 213 2 230 6 256 54 28 52 -1 134 -54 153 -35 12 -393 13 -422 1z"/>
<path d="M1584 9876 c-49 -35 -57 -137 -14 -180 20 -20 30 -21 241 -21 l221 0
29 33 c38 43 41 107 5 149 l-24 28 -219 3 c-181 2 -222 0 -239 -12z"/>
<path d="M12593 8375 c-18 -8 -33 -21 -33 -29 0 -8 -6 -16 -12 -18 -10 -4 -14
-155 -16 -704 -2 -674 -2 -700 17 -730 13 -21 34 -37 65 -47 44 -15 49 -15 91
3 24 10 50 29 57 42 10 18 13 163 13 730 l0 708 -27 26 c-32 33 -106 41 -155
19z"/>
<path d="M12781 6924 c0 -11 3 -14 6 -6 3 7 2 16 -1 19 -3 4 -6 -2 -5 -13z"/>
<path d="M2402 6210 c0 -14 2 -19 5 -12 2 6 2 18 0 25 -3 6 -5 1 -5 -13z"/>
<path d="M2350 6210 c0 -5 5 -10 10 -10 6 0 10 5 10 10 0 6 -4 10 -10 10 -5 0
-10 -4 -10 -10z"/>
<path d="M11813 6125 c0 -44 2 -61 4 -37 2 23 2 59 0 80 -2 20 -4 1 -4 -43z"/>
<path d="M2386 6177 c3 -10 9 -15 12 -12 3 3 0 11 -7 18 -10 9 -11 8 -5 -6z"/>
<path d="M12822 6150 c0 -14 2 -19 5 -12 2 6 2 18 0 25 -3 6 -5 1 -5 -13z"/>
<path d="M2355 6150 c-3 -5 -1 -10 4 -10 6 0 11 5 11 10 0 6 -2 10 -4 10 -3 0
-8 -4 -11 -10z"/>
<path d="M2360 6109 c0 -5 5 -7 10 -4 6 3 10 8 10 11 0 2 -4 4 -10 4 -5 0 -10
-5 -10 -11z"/>
<path d="M2416 6105 c4 -8 8 -15 10 -15 2 0 4 7 4 15 0 8 -4 15 -10 15 -5 0
-7 -7 -4 -15z"/>
<path d="M2381 6095 c-1 -5 6 -28 14 -50 8 -22 14 -33 15 -24 0 9 -7 32 -15
50 -8 19 -14 30 -14 24z"/>
<path d="M11807 5973 c6 -84 11 -88 12 -10 1 37 -3 67 -7 67 -5 0 -7 -26 -5
-57z"/>
<path d="M11855 5875 c-4 -42 -5 -79 -2 -81 2 -3 8 29 12 71 4 42 5 79 2 81
-2 3 -8 -29 -12 -71z"/>
<path d="M12700 5936 c0 -22 17 -28 24 -10 9 22 8 24 -9 24 -8 0 -15 -6 -15
-14z"/>
<path d="M12660 5880 c0 -5 7 -10 15 -10 8 0 15 5 15 10 0 6 -7 10 -15 10 -8
0 -15 -4 -15 -10z"/>
<path d="M2910 5820 c0 -20 5 -30 15 -30 10 0 15 10 15 30 0 20 -5 30 -15 30
-10 0 -15 -10 -15 -30z"/>
<path d="M2515 5748 c4 -24 7 -51 7 -60 0 -10 3 -18 9 -18 5 0 9 -18 9 -39 0
-42 16 -64 26 -37 3 9 15 16 25 16 22 0 23 7 4 40 -14 25 -14 25 -15 3 0 -27
-15 -30 -24 -7 -4 10 1 25 10 36 10 10 14 21 10 25 -4 4 -11 1 -16 -7 -8 -12
-10 -11 -10 4 0 28 -23 86 -33 86 -6 0 -6 -18 -2 -42z"/>
<path d="M12684 5773 c5 -14 -4 -42 -29 -90 -20 -37 -29 -59 -21 -48 9 11 20
25 26 32 5 7 10 17 10 23 0 6 6 8 13 4 6 -4 9 -4 5 1 -4 4 -1 22 7 41 12 29
12 34 -2 46 -14 11 -15 10 -9 -9z"/>
<path d="M2601 5694 c0 -11 3 -14 6 -6 3 7 2 16 -1 19 -3 4 -6 -2 -5 -13z"/>
<path d="M2610 5649 c0 -11 5 -17 10 -14 6 3 10 13 10 21 0 8 -4 14 -10 14 -5
0 -10 -9 -10 -21z"/>
<path d="M12480 5379 c0 -6 4 -8 9 -4 5 3 11 -5 13 -17 3 -22 4 -22 9 3 4 19
1 25 -13 26 -10 1 -18 -3 -18 -8z"/>
<path d="M2872 5120 c0 -14 2 -19 5 -12 2 6 2 18 0 25 -3 6 -5 1 -5 -13z"/>
<path d="M2897 5133 c-4 -3 -7 -15 -7 -25 0 -12 7 -18 24 -18 22 0 36 16 36
41 0 10 -43 12 -53 2z"/>
<path d="M3386 5086 c6 -17 34 -30 34 -16 0 5 -9 14 -20 20 -16 8 -18 8 -14
-4z"/>
<path d="M12375 5059 c-4 -6 -5 -12 -2 -15 2 -3 7 2 10 11 7 17 1 20 -8 4z"/>
<path d="M2847 5046 c-4 -11 -6 -19 -5 -20 2 -1 14 -7 28 -15 17 -9 21 -9 13
-1 -6 7 -9 19 -6 28 4 9 2 13 -4 9 -6 -4 -13 -2 -15 5 -3 7 -7 5 -11 -6z"/>
<path d="M1747 4975 c-71 -24 -107 -77 -107 -156 0 -87 65 -151 156 -153 52
-1 87 17 120 65 39 57 43 117 11 172 -15 24 -36 51 -49 59 -34 22 -89 28 -131
13z"/>
<path d="M11860 4410 c-6 -11 -8 -20 -6 -20 3 0 10 9 16 20 6 11 8 20 6 20 -3
0 -10 -9 -16 -20z"/>
<path d="M12529 4032 c-228 -61 -377 -286 -341 -514 45 -293 337 -468 610
-366 69 26 92 39 159 96 42 34 63 63 100 139 l48 96 -1 106 c0 127 -21 190
-93 283 -112 147 -301 209 -482 160z m235 -282 c55 -51 88 -119 88 -181 0
-105 -129 -226 -203 -190 -23 12 -23 12 -4 -5 19 -16 18 -16 -20 -9 -118 20
-187 104 -187 226 0 120 86 198 220 199 59 0 65 -2 106 -40z"/>
<path d="M1772 3844 c-95 -48 -119 -171 -51 -258 64 -82 234 -40 265 66 12 41
1 110 -23 142 -42 56 -132 80 -191 50z"/>
<path d="M2821 3662 c-50 -25 -74 -63 -79 -127 -4 -47 -1 -61 21 -94 33 -50
86 -75 146 -68 37 4 52 13 82 45 44 46 55 91 39 152 -25 93 -123 136 -209 92z"/>
<path d="M1919 2653 c-30 -18 -59 -72 -59 -106 0 -12 9 -41 19 -63 15 -34 28
-45 64 -59 39 -15 53 -15 94 -6 75 18 76 19 79 115 4 92 -3 108 -53 127 -38
14 -115 10 -144 -8z"/>
<path d="M2283 2643 c71 -2 183 -2 250 0 67 1 10 3 -128 3 -137 0 -192 -2
-122 -3z"/>
<path d="M2680 2646 c0 -8 51 -13 56 -5 3 5 -9 9 -25 9 -17 0 -31 -2 -31 -4z"/>
<path d="M2755 2640 c-4 -6 3 -10 14 -10 25 0 27 6 6 13 -8 4 -17 2 -20 -3z"/>
<path d="M2865 2630 c-16 -7 -17 -9 -3 -9 9 -1 20 4 23 9 7 11 7 11 -20 0z"/>
<path d="M2797 2539 c7 -7 15 -10 18 -7 3 3 -2 9 -12 12 -14 6 -15 5 -6 -5z"/>
<path d="M2783 2443 c9 -2 23 -2 30 0 6 3 -1 5 -18 5 -16 0 -22 -2 -12 -5z"/>
<path d="M4607 523 c-4 -3 -7 -13 -7 -22 1 -13 3 -13 11 2 11 19 8 33 -4 20z"/>
<path d="M10583 363 c15 -2 37 -2 50 0 12 2 0 4 -28 4 -27 0 -38 -2 -22 -4z"/>
</g>
</svg>
